<svg xmlns="http://www.w3.org/2000/svg" xml:space="preserve" id="Layer_1" x="0" y="0" style="enable-background:new 0 0 512 512" version="1.1" viewBox="0 0 512 512"><style>.st1{fill:#ff9a00}</style><g id="Illustrator" transform="translate(2303 308)"><path id="Прямоугольник_16" d="M-2223.03-308h352.05c44.13 0 79.97 35.84 79.97 79.97v352.05c0 44.13-35.84 79.97-79.97 79.97h-352.05c-44.13 0-79.97-35.84-79.97-79.97v-352.05c0-44.13 35.84-79.97 79.97-79.97z" style="fill:#300"/><path id="Контур_30" d="M-2053.35 3.71h-78.13l-15.97 52.22c-.41 1.84-2.15 3.17-4.1 3.07h-39.63c-2.25 0-3.07-1.23-2.36-3.69l67.48-194.87c.72-2.05 1.33-4.3 2.05-6.96.92-3.79 1.43-7.68 1.33-11.57-.2-1.13.61-2.25 1.74-2.36h54.37c1.54 0 2.46.61 2.66 1.74l77 214.32c.72 2.25 0 3.38-2.05 3.38h-43.93c-1.54.2-2.97-.82-3.38-2.36l-17.08-52.92zm-66.46-36.05h57.24c-1.33-4.51-6.04-14.95-7.78-20.58s-4.3-10.14-6.35-16.59c-2.05-6.45-4.1-12.9-6.04-19.25-2.05-6.45-3.89-12.6-5.63-18.64-1.74-5.94-3.17-11.47-4.61-16.38h-.31c-1.95 9.11-4.3 18.12-7.07 27.03-3.17 10.14-6.35 20.48-9.63 31.13-3.26 10.65-6.64 24.27-9.82 33.28z" class="st1"/><path id="Контур_31" d="M-1941.02-125.22c-6.96.31-13.72-2.46-18.64-7.48-4.81-5.22-7.37-12.19-7.07-19.25-.2-7.07 2.56-13.93 7.58-18.74 5.02-4.81 11.78-7.48 18.74-7.27 7.07-.41 14.03 2.25 19.15 7.27 4.71 5.12 7.17 11.88 6.96 18.74a26.22 26.22 0 0 1-7.27 19.25 26.123 26.123 0 0 1-19.45 7.48zm-21.91 180.74V-99.1c0-2.05.92-3.07 2.66-3.07h38.4c1.84 0 2.66 1.02 2.66 3.07V55.52c0 2.25-.92 3.38-2.66 3.38h-38.09c-1.95 0-2.97-1.13-2.97-3.38z" class="st1"/></g></svg>