<svg xmlns="http://www.w3.org/2000/svg" xml:space="preserve" id="Layer_1" x="0" y="0" style="enable-background:new 0 0 512 512" version="1.1" viewBox="0 0 512 512"><style>.st1{fill:#f36}</style><g id="InDesign" transform="translate(2511 308)"><path id="Прямоугольник_18" d="M-2431.03-308h352.05c44.13 0 79.97 35.84 79.97 79.97v352.05c0 44.13-35.84 79.97-79.97 79.97h-352.05c-44.13 0-79.97-35.84-79.97-79.97v-352.05c0-44.13 35.84-79.97 79.97-79.97z" style="fill:#49021f"/><path id="Контур_34" d="M-2329.14-156.55V55.52c0 2.25-1.02 3.38-3.07 3.38h-38.71c-1.84 0-2.66-1.13-2.66-3.38v-211.97c0-1.84 1.02-2.66 3.07-2.66h38.71c1.33-.2 2.56.72 2.66 2.05v.51z" class="st1"/><path id="Контур_35" d="M-2203.49 63.4c-15.56.2-31.03-2.97-45.16-9.42-13.21-6.14-24.27-16.08-31.64-28.57-8.19-14.64-12.08-31.13-11.47-47.92-.1-15.56 3.79-30.82 11.47-44.34a84.377 84.377 0 0 1 33.48-32.46 108.72 108.72 0 0 1 53.15-12.19c1.13 0 2.56.1 4.4.2 1.84.1 5.73.31 8.19.51v-64c0-1.54.72-2.36 2.05-2.36h39.22c1.02-.1 1.84.51 2.05 1.54V22.14c0 3.79.2 7.99.51 12.49.31 4.51.61 8.6.82 12.19.1 1.43-.72 2.76-2.05 3.38-10.44 4.61-21.4 7.99-32.56 10.14a174.045 174.045 0 0 1-32.46 3.06zm22.42-41.88v-92.36c-2.46-.51-4.92-.82-7.37-1.02-2.36-.2-4.61-.31-6.96-.31-8.19-.1-16.28 1.74-23.65 5.43-16.18 7.68-25.91 24.47-24.68 42.29-.2 7.37 1.02 14.75 3.58 21.61 2.05 5.63 5.32 10.65 9.42 14.85 3.99 3.89 8.91 6.76 14.23 8.5 5.63 1.84 11.47 2.76 17.41 2.66 3.17 0 6.04-.1 8.81-.31 3.07-.21 6.14-.62 9.21-1.34z" class="st1"/></g></svg>