<svg xmlns="http://www.w3.org/2000/svg" xml:space="preserve" id="Layer_1" x="0" y="0" style="enable-background:new 0 0 512 512" version="1.1" viewBox="0 0 512 512"><style>.st1{fill:#31a8ff}</style><g id="Lightroom_Classic" transform="translate(3343 308)"><path id="Прямоугольник_19" d="M-3263.03-308h352.05c44.13 0 79.97 35.84 79.97 79.97v352.05c0 44.13-35.84 79.97-79.97 79.97h-352.05c-44.13 0-79.97-35.84-79.97-79.97v-352.05c0-44.13 35.84-79.97 79.97-79.97z" style="fill:#001e36"/><path id="Контур_36" d="M-3154.58 53.98c-.31 1.33-1.02 2.56-2.05 3.38-1.02.82-2.36 1.23-3.69 1.23h-115.81c-1.54.1-3.07-.51-4.1-1.64-.92-1.13-1.43-2.66-1.43-4.2V-149.8c-.2-2.66 1.84-5.02 4.51-5.22h34.51c1.33 0 2.56.51 3.48 1.43.82.92 1.13 2.15 1.13 3.38V23.57h83.76c1.54-.1 2.97.51 3.99 1.54.92 1.23 1.23 2.76.82 4.2l-5.12 24.67z" class="st1"/><path id="Контур_37" d="M-3138.71-99c.92-1.02 2.25-1.54 3.58-1.54h29.7c1.33 0 2.66.41 3.69 1.13 1.02.82 1.84 1.84 2.25 3.07 1.43 4.1 2.46 8.29 2.76 12.6 11.78-12.9 28.67-20.07 46.18-19.66 2.56-.2 4.71 1.74 4.92 4.3v32.46c.2 2.56-1.64 4.71-4.2 4.92-.41 0-.82 0-1.23-.1-17.72-1.02-31.23 3.58-41.06 13.41-1.43 1.54-2.15 3.58-2.05 5.73v96.26c0 1.43-.51 2.76-1.54 3.69-1.02.82-2.36 1.23-3.69 1.23h-33.18c-1.43.1-2.76-.41-3.89-1.33-1.02-1.02-1.64-2.46-1.64-3.89v-106.5c0-17-.51-30.92-1.54-41.98-.19-1.34.12-2.68.94-3.8z" class="st1"/><path id="Контур_38" d="m-2887.93 54.8-.2.1c-10.75 4.4-25.6 6.55-44.24 6.55-30.41 0-55.81-9.11-75.98-27.55-20.28-18.53-30.21-46.39-30.21-83.05 0-32.56 9.83-58.98 29.8-78.85 20.17-20.17 46.59-30.11 79.16-30.11 19.15 0 33.79 2.15 43.62 6.86a5.13 5.13 0 0 1 2.76 2.36c.51 1.13.82 2.36.82 3.58v27.44c0 .72-.1 1.54-.2 2.25-.2.92-.72 1.74-1.43 2.25-.92.61-1.95.82-3.07.61-.72-.2-1.33-.51-1.95-.92-12.19-6.04-25.7-9.01-39.22-8.4-20.48 0-36.25 6.35-47.92 18.74-11.57 12.19-17.61 29.7-17.61 53.04-.31 12.6 1.84 25.09 6.14 36.86 3.38 9.01 9.01 17 16.49 23.14a74.102 74.102 0 0 0 21.3 11.57 75.79 75.79 0 0 0 23.45 3.69c12.29.1 24.58-1.84 36.25-5.84 1.33-.61 2.97-.51 4.2.2a4.52 4.52 0 0 1 1.64 3.79V48.3c.08 2.71-1.25 5.17-3.6 6.5z" class="st1"/></g></svg>