<svg xmlns="http://www.w3.org/2000/svg" xml:space="preserve" id="Layer_1" x="0" y="0" style="enable-background:new 0 0 512 512" version="1.1" viewBox="0 0 512 512"><style>.st1{fill:#31a8ff}</style><g id="Layer_2_1_"><g id="Surfaces"><g id="Photo_Surface"><path id="Outline_no_shadow" d="M90.59 6.4h330.72c50.19 0 90.64 40.56 90.64 90.64v317.91c0 50.19-40.56 90.64-90.64 90.64H90.59c-50.19 0-90.64-40.56-90.64-90.64V97.04C-.05 46.86 40.51 6.4 90.59 6.4z" style="fill:#001e36"/></g></g><g id="Outlined_Mnemonics_Logos"><g id="Ps"><path d="M115.17 356.47V136.99c0-1.54.61-2.36 2.15-2.36 3.58 0 7.07 0 11.98-.2 5.12-.2 10.45-.2 16.18-.41s11.98-.2 18.54-.41c6.66-.2 13.01-.2 19.46-.2 17.51 0 32.06 2.15 43.94 6.66 10.65 3.58 20.48 9.63 28.58 17.51a67.151 67.151 0 0 1 15.57 24.38c3.18 8.91 4.92 18.13 4.92 27.76 0 18.33-4.3 33.49-12.8 45.47-8.5 11.98-20.48 20.89-34.31 26.01-14.54 5.33-30.52 7.27-48.04 7.27-5.12 0-8.5 0-10.65-.2s-5.12-.2-9.22-.2v68.52c.2 1.54-.82 2.77-2.36 2.97h-41.38c-1.74-.32-2.56-1.14-2.56-3.09zm46.5-180.67v71.69c2.97.2 5.74.41 8.3.41h11.27c8.3 0 16.69-1.33 24.58-3.89 6.86-1.95 12.8-5.94 17.51-11.27 4.51-5.33 6.66-12.6 6.66-22.02.2-6.66-1.54-13.21-4.92-18.95-3.58-5.53-8.71-9.83-14.95-12.19-7.89-3.18-16.39-4.51-25.2-4.3-5.53 0-10.45 0-14.54.2-4.2-.08-7.17.12-8.71.32zM409.63 234.49c-6.45-3.38-13.21-5.74-20.48-7.27-7.89-1.74-15.77-2.77-23.86-2.77-4.3-.2-8.71.41-12.8 1.54-2.77.61-5.12 2.15-6.66 4.3-1.02 1.74-1.74 3.89-1.74 5.74 0 1.95.82 3.89 2.15 5.53 1.95 2.36 4.51 4.3 7.27 5.74 4.92 2.56 10.04 4.92 15.16 7.07 11.57 3.89 22.63 9.22 32.88 15.57 7.07 4.51 12.8 10.45 16.9 17.72 3.38 6.86 5.12 14.34 4.92 22.02.2 10.04-2.77 20.07-8.3 28.37-5.94 8.5-14.34 15.16-23.86 18.95-10.45 4.51-23.25 6.86-38.61 6.86-9.83 0-19.46-.82-28.98-2.77-7.48-1.33-14.95-3.58-21.82-6.86-1.54-.82-2.56-2.36-2.36-4.1v-37.08c0-.61.2-1.54.82-1.95s1.33-.2 1.95.2c8.3 4.92 17.1 8.3 26.42 10.45 8.09 2.15 16.69 3.18 25.2 3.18 8.09 0 13.83-1.02 17.72-2.97 3.38-1.54 5.74-5.12 5.74-9.01 0-2.97-1.74-5.74-5.12-8.5-3.38-2.77-10.45-5.94-20.89-10.04-10.86-3.89-20.89-9.01-30.32-15.36a53.938 53.938 0 0 1-16.18-18.13c-3.38-6.86-5.12-14.34-4.92-21.71 0-9.22 2.56-17.92 7.27-25.81 5.33-8.5 13.21-15.36 22.43-19.66 10.04-5.12 22.63-7.48 37.79-7.48 8.71 0 17.72.61 26.42 1.95 6.45.82 12.6 2.56 18.33 4.92.82.2 1.74 1.02 2.15 1.95.2.82.41 1.74.41 2.56v34.82c0 .82-.41 1.74-1.02 2.15-2.06.29-3.19.29-4.01-.12z" class="st1"/></g></g></g></svg>