<svg xmlns="http://www.w3.org/2000/svg" xml:space="preserve" id="Layer_1" x="0" y="0" style="enable-background:new 0 0 512 512" version="1.1" viewBox="0 0 512 512"><style>.st1{fill:#99f}</style><g id="Premiere" transform="translate(4175 308)"><path id="Прямоугольник_26" d="M-4095.03-308h352.05c44.13 0 79.97 35.84 79.97 79.97v352.05c0 44.13-35.84 79.97-79.97 79.97h-352.05c-44.13 0-79.97-35.84-79.97-79.97v-352.05c0-44.13 35.84-79.97 79.97-79.97z" style="fill:#00005b"/><path id="Контур_52" d="M-4054.27 54.39v-215.76c0-1.84.92-2.76 1.84-2.76h47.51c6.45 0 14.64 1.84 20.99 1.84 14.54-.2 29.08 1.95 43.01 6.45 10.75 3.48 20.38 9.42 28.36 17.41 6.76 6.76 11.98 14.85 15.56 23.76a96.4 96.4 0 0 1 4.61 27.44c.72 15.97-3.79 31.64-12.8 44.85-8.19 11.98-20.07 20.89-33.79 25.6-15.26 5.43-31.33 8.29-47.51 8.19h-10.04c-1.84 0-10.04-1.84-14.64-1.84v66.76c.2 1.33-.72 2.56-2.05 2.76h-39.12c-1.01-1.93-1.93-2.85-1.93-4.7zm43.93-178.27v70.45c2.76 0 10.96 1.84 13.72 1.84h10.96c8.09.2 16.08-1.02 23.76-3.69 6.76-1.84 12.8-5.63 17.41-10.96 4.81-6.25 7.17-14.13 6.45-21.91-.1-6.35-1.64-12.6-4.61-18.33-3.48-5.43-8.6-9.52-14.64-11.88-7.88-2.87-16.28-4.4-24.68-4.61h-14.64c-4.62.31-9.23.01-13.73-.91z" class="st1"/><path id="Контур_53" d="M-3863.19-109.24h36.56c2.05.31 3.79 1.74 4.61 3.69.92 1.84 1.84 2.76 1.84 4.61.72 2.05 1.02 4.2.92 6.35v7.27c6.35-7.58 14.13-13.72 22.84-18.33 8.7-5.53 18.94-8.09 29.29-7.27 1.84 0 2.76.92 2.76 1.84V-69c0 1.84-.92 2.76-3.69 2.76-6.76-.82-13.62-.2-20.07 1.84-6.04.82-11.88 2.66-17.41 5.53-5.02 1.84-9.73 4.61-13.72 8.19V56.24c.2 1.33-.72 2.56-2.05 2.76h-39.12c-1.84 0-2.76-.92-3.69-2.76V-76.37c.1-5.53-.2-10.96-.92-16.49 0-4.61-.92-9.11-.92-13.72 0-.92 0-.92.92-1.84 0-.82.93-.82 1.85-.82z" class="st1"/></g></svg>