<svg xmlns="http://www.w3.org/2000/svg" data-name="Layer 1" viewBox="0 0 95.17 122.88"><path d="M20.59 47.11H88.8a6.39 6.39 0 0 1 6.37 6.37v7.78H0v-7.78a6.39 6.39 0 0 1 6.37-6.37h14.22Zm74.58 19.78v49.61a6.39 6.39 0 0 1-6.37 6.38H6.37A6.39 6.39 0 0 1 0 116.5V66.89Zm-83.12 38.38 1.23-7.22a29.73 29.73 0 0 0 7.24 1 42 42 0 0 0 5.19-.26v-2.18l-3.94-.35q-5.34-.48-7.33-2.56t-2-6.15q0-5.6 2.43-7.7t8.25-2.1a46.79 46.79 0 0 1 10.5 1.09l-1.1 7a42.74 42.74 0 0 0-6.52-.65 32.44 32.44 0 0 0-4.15.22v2.14l3.15.31q5.73.57 7.92 2.73a8.09 8.09 0 0 1 2.19 6 12.75 12.75 0 0 1-.75 4.66 8 8 0 0 1-1.77 2.89 6.78 6.78 0 0 1-2.91 1.51 17.42 17.42 0 0 1-3.3.63c-.95.08-2.21.11-3.79.11a46.17 46.17 0 0 1-10.55-1.14Zm26.24 0 1.22-7.22a29.8 29.8 0 0 0 7.24 1 41.93 41.93 0 0 0 5.19-.26v-2.18L48 96.26q-5.34-.48-7.33-2.56c-1.32-1.38-2-3.43-2-6.15q0-5.6 2.43-7.7t8.25-2.1a46.79 46.79 0 0 1 10.5 1.09l-1.09 7a43 43 0 0 0-6.52-.66 32.61 32.61 0 0 0-4.16.22v2.14l3.15.31q5.73.57 7.92 2.73a8.09 8.09 0 0 1 2.19 6 12.75 12.75 0 0 1-.75 4.66 7.85 7.85 0 0 1-1.77 2.89 6.66 6.66 0 0 1-2.91 1.51 17.14 17.14 0 0 1-3.3.63c-.95.08-2.21.11-3.79.11a46.09 46.09 0 0 1-10.54-1.14Zm44.83.49H65.61V78.41h8.76v20.34h8.75v7ZM6.37 47.11Z" style="fill-rule:evenodd;fill:#10a609"/><path d="M74.58 47.11v-6.63a29.07 29.07 0 0 0-8-20.16 26 26 0 0 0-38 0 29.07 29.07 0 0 0-8 20.16v6.63H8.52v-6.63A41.14 41.14 0 0 1 19.92 12a37.93 37.93 0 0 1 55.33 0 41.12 41.12 0 0 1 11.4 28.5v6.63Z" style="fill:#4d4d4d;fill-rule:evenodd"/></svg>